<svg id="Expand" enable-background="new 0 0 96 96" height="512" viewBox="0 0 96 96" width="512" xmlns="http://www.w3.org/2000/svg"><path d="m30 3c0-.553-.448-1-1-1h-26c-.552 0-1 .447-1 1v42c0 .553.448 1 1 1h26c.552 0 1-.447 1-1v-38c0-.553-.448-1-1-1s-1 .447-1 1v37h-24v-40h25c.552 0 1-.447 1-1z"/><path d="m61 2h-26c-.552 0-1 .447-1 1v42c0 .553.448 1 1 1h26c.552 0 1-.447 1-1v-27c0-.553-.448-1-1-1s-1 .447-1 1v26h-24v-40h24v6c0 .553.448 1 1 1s1-.447 1-1v-7c0-.553-.448-1-1-1z"/><path d="m93 2h-26c-.552 0-1 .447-1 1v42c0 .553.448 1 1 1h26c.552 0 1-.447 1-1v-42c0-.553-.448-1-1-1zm-1 42h-24v-40h24z"/><path d="m10 20h12c.353 0 .68-.187.86-.489.18-.304.187-.68.018-.989l-6-11c-.351-.643-1.405-.643-1.756 0l-6 11c-.169.31-.162.686.018.989.18.302.507.489.86.489zm6-9.912 4.315 7.912h-8.631z"/><path d="m53 19c.552 0 1-.447 1-1v-10c0-.553-.448-1-1-1h-10c-.552 0-1 .447-1 1v10c0 .553.448 1 1 1zm-9-10h8v8h-8z"/><path d="m80 19c3.309 0 6-2.691 6-6s-2.691-6-6-6-6 2.691-6 6 2.691 6 6 6zm0-10c2.206 0 4 1.794 4 4s-1.794 4-4 4-4-1.794-4-4 1.794-4 4-4z"/><path d="m23 23h-14c-.552 0-1 .447-1 1s.448 1 1 1h14c.552 0 1-.447 1-1s-.448-1-1-1z"/><path d="m23 28h-14c-.552 0-1 .447-1 1s.448 1 1 1h14c.552 0 1-.447 1-1s-.448-1-1-1z"/><path d="m23 33h-14c-.552 0-1 .447-1 1s.448 1 1 1h14c.552 0 1-.447 1-1s-.448-1-1-1z"/><path d="m23 38h-14c-.552 0-1 .447-1 1s.448 1 1 1h14c.552 0 1-.447 1-1s-.448-1-1-1z"/><path d="m55 23h-14c-.552 0-1 .447-1 1s.448 1 1 1h14c.552 0 1-.447 1-1s-.448-1-1-1z"/><path d="m55 28h-14c-.552 0-1 .447-1 1s.448 1 1 1h14c.552 0 1-.447 1-1s-.448-1-1-1z"/><path d="m55 33h-14c-.552 0-1 .447-1 1s.448 1 1 1h14c.552 0 1-.447 1-1s-.448-1-1-1z"/><path d="m55 38h-14c-.552 0-1 .447-1 1s.448 1 1 1h14c.552 0 1-.447 1-1s-.448-1-1-1z"/><path d="m73 25h14c.552 0 1-.447 1-1s-.448-1-1-1h-14c-.552 0-1 .447-1 1s.448 1 1 1z"/><path d="m73 30h14c.552 0 1-.447 1-1s-.448-1-1-1h-14c-.552 0-1 .447-1 1s.448 1 1 1z"/><path d="m73 35h14c.552 0 1-.447 1-1s-.448-1-1-1h-14c-.552 0-1 .447-1 1s.448 1 1 1z"/><path d="m73 40h14c.552 0 1-.447 1-1s-.448-1-1-1h-14c-.552 0-1 .447-1 1s.448 1 1 1z"/><path d="m29 50h-26c-.552 0-1 .447-1 1v42c0 .553.448 1 1 1h26c.552 0 1-.447 1-1v-42c0-.553-.448-1-1-1zm-1 42h-24v-40h24z"/><path d="m61 50h-26c-.552 0-1 .447-1 1v29c0 .553.448 1 1 1s1-.447 1-1v-28h24v40h-24v-8c0-.553-.448-1-1-1s-1 .447-1 1v9c0 .553.448 1 1 1h26c.552 0 1-.447 1-1v-42c0-.553-.448-1-1-1z"/><path d="m93 50h-26c-.552 0-1 .447-1 1v42c0 .553.448 1 1 1h26c.552 0 1-.447 1-1v-42c0-.553-.448-1-1-1zm-1 42h-24v-40h24z"/><path d="m9 73h14c.552 0 1-.447 1-1s-.448-1-1-1h-14c-.552 0-1 .447-1 1s.448 1 1 1z"/><path d="m9 78h14c.552 0 1-.447 1-1s-.448-1-1-1h-14c-.552 0-1 .447-1 1s.448 1 1 1z"/><path d="m9 83h14c.552 0 1-.447 1-1s-.448-1-1-1h-14c-.552 0-1 .447-1 1s.448 1 1 1z"/><path d="m9 88h14c.552 0 1-.447 1-1s-.448-1-1-1h-14c-.552 0-1 .447-1 1s.448 1 1 1z"/><path d="m41 73h14c.552 0 1-.447 1-1s-.448-1-1-1h-14c-.552 0-1 .447-1 1s.448 1 1 1z"/><path d="m41 78h14c.552 0 1-.447 1-1s-.448-1-1-1h-14c-.552 0-1 .447-1 1s.448 1 1 1z"/><path d="m41 83h14c.552 0 1-.447 1-1s-.448-1-1-1h-14c-.552 0-1 .447-1 1s.448 1 1 1z"/><path d="m41 88h14c.552 0 1-.447 1-1s-.448-1-1-1h-14c-.552 0-1 .447-1 1s.448 1 1 1z"/><path d="m73 73h14c.552 0 1-.447 1-1s-.448-1-1-1h-14c-.552 0-1 .447-1 1s.448 1 1 1z"/><path d="m73 78h14c.552 0 1-.447 1-1s-.448-1-1-1h-14c-.552 0-1 .447-1 1s.448 1 1 1z"/><path d="m73 83h14c.552 0 1-.447 1-1s-.448-1-1-1h-14c-.552 0-1 .447-1 1s.448 1 1 1z"/><path d="m73 88h2c.552 0 1-.447 1-1s-.448-1-1-1h-2c-.552 0-1 .447-1 1s.448 1 1 1z"/><path d="m15.293 66.707c.195.195.451.293.707.293s.512-.098.707-.293l5-5c.391-.391.391-1.023 0-1.414l-5-5c-.391-.391-1.023-.391-1.414 0l-5 5c-.391.391-.391 1.023 0 1.414zm.707-9.293 3.586 3.586-3.586 3.586-3.586-3.586z"/><path d="m55.957 59.293c-.114-.376-.438-.649-.827-.7l-4.333-.568-1.919-3.505c-.351-.641-1.403-.641-1.754 0l-1.919 3.505-4.333.568c-.389.051-.713.324-.827.7s.001.783.296 1.042l3.071 2.697-.719 3.781c-.07.369.073.747.371.978.298.229.7.275 1.04.112l3.896-1.846 3.898 1.847c.136.065.283.096.428.096.217 0 .433-.071.612-.209.298-.23.441-.608.371-.978l-.719-3.781 3.071-2.697c.294-.259.41-.666.296-1.042zm-5.117 2.614c-.266.233-.388.59-.322.938l.458 2.409-2.548-1.207c-.136-.065-.282-.097-.428-.097s-.292.032-.428.097l-2.548 1.207.458-2.409c.066-.348-.057-.704-.322-.938l-1.842-1.618 2.649-.348c.316-.041.594-.231.747-.511l1.286-2.348 1.286 2.349c.153.279.431.47.747.511l2.649.348z"/><path d="m74.485 64.857 5 3c.159.095.337.143.515.143s.356-.048.515-.143l5-3c.301-.18.485-.505.485-.857v-5c0-.352-.184-.677-.485-.857l-5-3c-.317-.189-.712-.189-1.029 0l-5 3c-.302.18-.486.505-.486.857v5c0 .352.184.677.485.857zm1.515-5.291 4-2.4 4 2.4v3.867l-4 2.4-4-2.4z"/><circle cx="79" cy="87" r="1"/><circle cx="83" cy="87" r="1"/><circle cx="87" cy="87" r="1"/><circle cx="61" cy="14" r="1"/></svg>